<svg fill="#fff" xmlns="http://www.w3.org/2000/svg"  viewBox="0 0 100 100" width="500px" height="500px"><path d="M 48.066406 13.011719 C 27.958469 13.110718 13.96286 30.388096 12.933594 49.949219 C 11.869232 70.172086 29.56139 86.038835 49.832031 87.052734 C 71.00762 88.111514 85.879531 70.076016 86.927734 50.160156 C 88.007179 29.665591 70.281869 14.069539 50.03125 13.056641 C 49.370116 13.023584 48.715049 13.008525 48.066406 13.011719 z M 48.082031 17.011719 C 48.659471 17.009156 49.243165 17.023291 49.832031 17.052734 C 50.04264 17.063269 50.25104 17.083711 50.460938 17.097656 L 48.974609 21.082031 A 1.0001 1.0001 0 1 0 50.847656 21.78125 L 52.523438 17.291016 C 66.125116 18.931669 77.839892 27.694637 81.658203 39.828125 L 70.470703 46.765625 A 1.0001 1.0001 0 1 0 71.525391 48.464844 L 82.216797 41.833984 C 82.485901 42.976531 82.679918 44.147278 82.806641 45.339844 L 74.388672 49.394531 A 1.000657 1.000657 0 0 0 75.257812 51.197266 L 82.949219 47.490234 C 82.974343 48.301498 82.977297 49.119461 82.933594 49.949219 C 82.44792 59.177024 78.787329 67.846373 72.822266 74.005859 L 69.505859 70.626953 A 1.0001 1.0001 0 0 0 68.792969 70.318359 A 1.0001 1.0001 0 0 0 68.080078 72.029297 L 71.386719 75.396484 C 70.597849 76.115018 69.775058 76.792312 68.917969 77.423828 L 65.488281 71.037109 A 1.0001 1.0001 0 0 0 64.59375 70.498047 A 1.0001 1.0001 0 0 0 63.726562 71.982422 L 67.261719 78.566406 C 65.045818 79.979252 62.63557 81.101499 60.052734 81.875 L 57.685547 56.775391 L 65.558594 57.017578 A 1.0001 1.0001 0 0 0 66.587891 55.992188 L 66.291016 45.210938 A 1.0001 1.0001 0 0 0 65.886719 44.435547 C 65.886719 44.435547 65.735921 44.33546 65.630859 44.289062 C 65.525798 44.242663 65.397271 44.197662 65.236328 44.15625 C 64.914443 44.07342 64.458337 44.002554 63.763672 43.972656 C 62.599265 43.922546 60.189816 44.147277 57.242188 44.541016 C 57.353397 43.282383 57.646617 42.292077 58.132812 41.650391 C 58.758403 40.82473 59.616148 40.341393 60.548828 40.058594 C 62.414188 39.492995 64.423828 39.828125 64.423828 39.828125 A 1.0001 1.0001 0 0 0 65.599609 38.84375 L 65.607422 28.228516 A 1.0001 1.0001 0 0 0 64.902344 27.271484 C 64.902344 27.271484 63.711784 26.922306 61.705078 27.007812 C 59.698373 27.093322 56.778778 27.583626 53.027344 29.148438 C 48.925561 30.859386 47.313988 35.032914 46.708984 38.580078 C 46.261563 41.203329 46.333821 43.140484 46.404297 44.208984 L 36.777344 44.833984 A 1.0001 1.0001 0 0 0 35.851562 45.974609 L 37.324219 56.050781 A 1.0001 1.0001 0 0 0 38.396484 56.904297 L 47.113281 56.166016 L 48.369141 82.912109 A 1.0001226 1.0001226 0 0 0 48.371094 82.935547 C 43.647573 82.489395 39.132634 81.156778 35.066406 79.121094 L 37.664062 75.359375 A 1.0001 1.0001 0 0 0 36.839844 73.779297 A 1.0001 1.0001 0 0 0 36.019531 74.222656 L 33.292969 78.171875 C 32.692476 77.829075 32.102105 77.473774 31.525391 77.099609 L 34.5625 73.466797 A 1.0001 1.0001 0 0 0 33.787109 71.814453 A 1.0001 1.0001 0 0 0 33.029297 72.183594 L 29.869141 75.960938 C 29.219064 75.48541 28.592451 74.9843 27.980469 74.46875 L 32.296875 69.447266 A 1.0001 1.0001 0 0 0 31.542969 67.785156 A 1.0001 1.0001 0 0 0 30.78125 68.144531 L 26.486328 73.140625 C 25.519792 72.225085 24.615799 71.25554 23.773438 70.240234 L 27.193359 67.613281 A 1.0001 1.0001 0 0 0 26.595703 65.8125 A 1.0001 1.0001 0 0 0 25.974609 66.027344 L 22.544922 68.662109 C 18.715726 63.408848 16.564808 57.055757 16.927734 50.160156 C 17.057569 47.692666 17.411766 45.277181 17.962891 42.941406 L 23.216797 44.361328 A 1.0003973 1.0003973 0 1 0 23.738281 42.429688 L 18.472656 41.007812 C 18.820417 39.808357 19.220969 38.634258 19.675781 37.490234 L 22.876953 38.802734 A 1.0001 1.0001 0 1 0 23.636719 36.953125 L 20.458984 35.648438 C 21.247772 33.935898 22.164972 32.306307 23.189453 30.767578 L 28.568359 32.916016 A 1.0001074 1.0001074 0 0 0 29.310547 31.058594 L 24.378906 29.087891 C 25.057115 28.191287 25.77391 27.331425 26.533203 26.515625 L 29.857422 28.816406 A 1.000935 1.000935 0 1 0 30.996094 27.169922 L 27.966797 25.074219 C 32.733644 20.569109 38.842247 17.636423 45.908203 17.107422 L 45.015625 21.837891 A 1.0007498 1.0007498 0 1 0 46.982422 22.208984 L 47.960938 17.015625 C 48.001656 17.015287 48.041255 17.0119 48.082031 17.011719 z M 62.564453 28.992188 C 63.18004 29.004147 63.368185 29.081225 63.607422 29.132812 L 63.599609 37.753906 C 62.684372 37.692616 61.444289 37.697126 59.96875 38.144531 C 58.749055 38.514357 57.473568 39.208036 56.539062 40.441406 C 55.604559 41.674777 55.056546 43.408178 55.134766 45.673828 A 1.0001 1.0001 0 0 0 56.289062 46.626953 C 60.25763 46.010808 62.493815 45.919748 63.677734 45.970703 C 64.032075 45.985953 64.13066 46.016992 64.3125 46.044922 L 64.560547 54.986328 L 56.613281 54.742188 A 1.0001 1.0001 0 0 0 55.585938 55.835938 L 58.089844 82.349609 A 1.0001 1.0001 0 0 0 58.09375 82.382812 C 55.64427 82.931047 53.055607 83.172777 50.347656 83.064453 A 1.0001226 1.0001226 0 0 0 50.367188 82.818359 L 49.0625 55.033203 A 1.0001 1.0001 0 0 0 47.980469 54.083984 L 39.166016 54.832031 L 37.988281 46.757812 L 47.515625 46.140625 A 1.0001 1.0001 0 0 0 48.445312 45.033203 C 48.445312 45.033203 48.12919 42.145555 48.679688 38.917969 C 49.230184 35.690382 50.598658 32.328191 53.796875 30.994141 C 57.345441 29.513951 60.023268 29.081102 61.789062 29.005859 C 62.107169 28.992304 62.359257 28.988201 62.564453 28.992188 z M 70.945312 35.376953 C 70.561453 35.310672 70.157844 35.472313 69.933594 35.820312 C 69.635594 36.284312 69.768422 36.904125 70.232422 37.203125 C 70.696422 37.501125 71.316234 37.366344 71.615234 36.902344 C 71.914234 36.438344 71.778453 35.819484 71.314453 35.521484 C 71.198453 35.446984 71.073266 35.399047 70.945312 35.376953 z M 25.972656 52.146484 C 25.588563 52.080203 25.184437 52.241844 24.960938 52.589844 C 24.662938 53.053844 24.797719 53.673656 25.261719 53.972656 C 25.725719 54.271656 26.343578 54.135875 26.642578 53.671875 C 26.940578 53.207875 26.80775 52.587063 26.34375 52.289062 C 26.22775 52.214562 26.100687 52.168578 25.972656 52.146484 z M 27.560547 58.998047 C 27.176453 58.931766 26.772328 59.093406 26.548828 59.441406 C 26.250828 59.905406 26.385609 60.525219 26.849609 60.824219 C 27.313609 61.122219 27.931469 60.987437 28.230469 60.523438 C 28.528469 60.059437 28.395641 59.441578 27.931641 59.142578 C 27.815641 59.068078 27.688578 59.020141 27.560547 58.998047 z"/></svg>