<svg fill="#fff" xmlns="http://www.w3.org/2000/svg"  viewBox="0 0 100 100" width="500px" height="500px"><path d="M 66.810547 18.421875 C 64.651788 18.475806 62.312944 18.987438 59.898438 20.207031 C 51.589543 24.403943 49.602664 33.02825 49.126953 37.0625 C 44.77145 36.719718 29.879766 34.74553 21.667969 22.441406 A 2.0002 2.0002 0 0 0 18.279297 22.541016 C 15.097894 27.966289 16.123781 33.824299 17.814453 38.085938 C 18.271865 39.238926 18.771146 39.978583 19.275391 40.910156 L 13.583984 39.443359 A 2.0002 2.0002 0 0 0 11.142578 41.853516 C 11.142578 41.853516 13.740858 52.469722 22.357422 57.349609 C 20.665499 57.720896 19.5625 57.849609 19.5625 57.849609 A 2.0002 2.0002 0 0 0 17.822266 60.634766 C 17.822266 60.634766 18.853808 62.926633 21.564453 65.302734 C 23.601829 67.08866 26.63966 69.030435 31.001953 70.498047 C 28.197748 71.787982 25.064517 72.714385 22.279297 73.269531 C 18.069963 74.10853 14.8125 74.238281 14.8125 74.238281 A 2.0002 2.0002 0 0 0 13.896484 77.970703 C 13.896484 77.970703 40.198285 93.014007 65.609375 76.226562 C 78.235803 67.885108 83.154249 57.783856 84.753906 49.816406 C 86.099078 43.116478 85.229457 38.640386 84.888672 37.121094 L 93.158203 29.193359 A 2.0002 2.0002 0 0 0 91.328125 25.800781 L 87.285156 26.726562 L 90.935547 22.873047 A 2.0002 2.0002 0 0 0 88.849609 19.601562 L 78.626953 23.015625 C 77.737297 22.193032 76.340549 21.035436 74.025391 19.955078 C 72.282821 19.141917 70.130441 18.507867 67.724609 18.425781 C 67.42388 18.41552 67.118941 18.414171 66.810547 18.421875 z M 67.177734 22.388672 L 65.857422 25.875 A 1.0001 1.0001 0 1 0 67.726562 26.583984 L 69.246094 22.572266 C 69.98653 22.712733 70.689468 22.913582 71.345703 23.164062 L 69.802734 25.660156 A 1.0001 1.0001 0 1 0 71.503906 26.710938 L 73.173828 24.009766 C 73.887539 24.400105 74.500216 24.806958 75.007812 25.185547 L 73.15625 27.140625 A 1.0001 1.0001 0 1 0 74.607422 28.515625 L 76.527344 26.488281 C 76.568005 26.530614 76.660156 26.623047 76.660156 26.623047 A 2.0002 2.0002 0 0 0 78.779297 27.181641 L 82.529297 25.929688 L 79.832031 28.775391 A 2.0002 2.0002 0 0 0 81.730469 32.099609 L 85.167969 31.3125 L 81.378906 34.945312 A 2.0002 2.0002 0 0 0 80.835938 36.927734 C 80.835938 36.927734 82.254117 41.946246 80.832031 49.029297 C 80.124827 52.551682 78.72659 56.543008 76.050781 60.625 L 71.130859 59.9375 A 1.0001 1.0001 0 0 0 70.931641 59.927734 A 1.0001 1.0001 0 0 0 70.855469 61.917969 L 74.755859 62.462891 C 74.197651 63.207938 73.585699 63.954254 72.933594 64.699219 L 67.005859 62.742188 A 1.0001 1.0001 0 0 0 66.712891 62.6875 A 1.0001 1.0001 0 0 0 66.378906 64.640625 L 71.441406 66.3125 C 70.686994 67.085316 69.883334 67.853071 69.013672 68.617188 L 62.962891 64.423828 A 1.0001 1.0001 0 0 0 62.402344 64.238281 A 1.0001 1.0001 0 0 0 61.824219 66.068359 L 67.433594 69.953125 C 66.199464 70.945683 64.860745 71.926492 63.404297 72.888672 C 60.379028 74.887269 57.349612 76.396051 54.367188 77.509766 L 52.794922 75.359375 A 1.0001 1.0001 0 0 0 51.933594 74.939453 A 1.0001 1.0001 0 0 0 51.179688 76.539062 L 52.386719 78.189453 C 51.799836 78.376332 51.216694 78.548956 50.634766 78.707031 L 48.263672 75.361328 A 1.0001 1.0001 0 0 0 47.40625 74.927734 A 1.0001 1.0001 0 0 0 46.630859 76.517578 L 48.548828 79.222656 C 47.888317 79.366718 47.233631 79.487259 46.582031 79.597656 L 45.519531 76.966797 A 1.0001 1.0001 0 0 0 44.587891 76.328125 A 1.0001 1.0001 0 0 0 43.664062 77.716797 L 44.537109 79.876953 C 42.340666 80.141444 40.207876 80.237901 38.162109 80.191406 L 39.050781 76.625 A 1.0001 1.0001 0 0 0 38.113281 75.371094 A 1.0001 1.0001 0 0 0 37.111328 76.142578 L 36.125 80.099609 C 35.620698 80.066181 35.116563 80.034335 34.625 79.986328 L 35.5625 77.828125 A 1.0001 1.0001 0 0 0 34.644531 76.416016 A 1.0001 1.0001 0 0 0 33.728516 77.03125 L 32.548828 79.744141 C 31.627059 79.614556 30.741348 79.458143 29.876953 79.289062 L 30.441406 78.542969 A 1.0001 1.0001 0 0 0 29.6875 76.929688 A 1.0001 1.0001 0 0 0 28.847656 77.335938 L 27.722656 78.822266 C 25.75864 78.351342 23.975636 77.811024 22.4375 77.271484 C 22.773284 77.210794 22.712228 77.260836 23.060547 77.191406 C 27.583463 76.289905 33.14311 74.67365 37.392578 71.402344 A 2.0002 2.0002 0 0 0 36.576172 67.857422 C 36.037407 67.746771 35.543258 67.620226 35.041016 67.496094 L 37.673828 65.576172 A 1.0001 1.0001 0 0 0 37.121094 63.759766 A 1.0001 1.0001 0 0 0 36.496094 63.960938 L 32.591797 66.806641 C 32.022766 66.622132 31.489002 66.429272 30.974609 66.230469 L 32.447266 65.736328 A 1.0001 1.0001 0 0 0 32.173828 63.785156 A 1.0001 1.0001 0 0 0 31.810547 63.841797 L 28.283203 65.023438 C 26.538525 64.11724 25.194394 63.165562 24.201172 62.294922 C 23.699831 61.855456 23.546492 61.592159 23.207031 61.224609 C 24.829326 60.872069 26.788862 60.391572 29.242188 59.408203 A 2.0002 2.0002 0 0 0 28.835938 55.580078 C 21.70915 54.361716 18.083777 48.22999 16.369141 44.291016 L 19.0625 44.984375 L 20.142578 48.566406 A 1.0001 1.0001 0 1 0 22.056641 47.988281 L 21.326172 45.566406 L 22.828125 45.953125 L 24.876953 49.634766 A 1.0001 1.0001 0 1 0 26.623047 48.662109 L 24.871094 45.511719 A 2.0002 2.0002 0 0 0 25.046875 42.796875 C 25.046875 42.796875 22.974031 40.24319 21.533203 36.611328 C 20.421609 33.809358 19.779113 30.554716 20.607422 27.367188 C 26.142543 33.945385 33.434022 37.388175 39.488281 39.205078 L 38.398438 43.828125 A 1.0003134 1.0003134 0 1 0 40.345703 44.287109 L 41.416016 39.742188 C 41.896194 39.865544 42.365894 39.984337 42.822266 40.087891 L 41.40625 45.193359 A 1.0001 1.0001 0 1 0 43.333984 45.726562 L 44.785156 40.494141 C 48.468927 41.179781 50.951172 41.228516 50.951172 41.228516 A 2.0002 2.0002 0 0 0 52.841797 39.945312 L 56.619141 42.058594 A 1.0003147 1.0003147 0 1 0 57.595703 40.3125 L 53.082031 37.787109 C 53.153053 37.108509 53.270757 36.27883 53.498047 35.261719 L 56.941406 37.529297 A 1.0001 1.0001 0 1 0 58.041016 35.859375 L 54.050781 33.230469 C 55.135262 29.900584 57.314598 25.994035 61.703125 23.777344 C 63.701915 22.767733 65.521766 22.395212 67.177734 22.388672 z M 71.033203 42.199219 C 70.643625 42.208781 70.278453 42.447281 70.126953 42.832031 C 69.923953 43.345031 70.176453 43.926906 70.689453 44.128906 C 71.202453 44.331906 71.783328 44.079406 71.986328 43.566406 C 72.189328 43.053406 71.936828 42.471531 71.423828 42.269531 C 71.295578 42.218781 71.163062 42.196031 71.033203 42.199219 z M 71.404297 49.800781 C 71.014953 49.810344 70.648344 50.048844 70.496094 50.433594 C 70.293094 50.946594 70.547547 51.528469 71.060547 51.730469 C 71.574547 51.933469 72.155422 51.680969 72.357422 51.167969 C 72.560422 50.654969 72.307922 50.071141 71.794922 49.869141 C 71.666672 49.818391 71.534078 49.797594 71.404297 49.800781 z M 61.361328 50.40625 C 60.97175 50.415578 60.606578 50.653562 60.455078 51.039062 C 60.252078 51.552062 60.504578 52.133938 61.017578 52.335938 C 61.530578 52.538938 62.111453 52.286438 62.314453 51.773438 C 62.517453 51.260438 62.264953 50.679563 61.751953 50.476562 C 61.623703 50.425813 61.491187 50.403141 61.361328 50.40625 z"/></svg>