<?xml version="1.0" standalone="no"?>
<!DOCTYPE svg PUBLIC "-//W3C//DTD SVG 20010904//EN"
 "http://www.w3.org/TR/2001/REC-SVG-20010904/DTD/svg10.dtd">
<svg version="1.0" xmlns="http://www.w3.org/2000/svg"
 width="400.000000pt" height="400.000000pt" viewBox="0 0 400.000000 400.000000"
 preserveAspectRatio="xMidYMid meet">
<metadata>
Created by potrace 1.14, written by Peter Selinger 2001-2017
</metadata>
<g transform="translate(0.000000,400.000000) scale(0.100000,-0.100000)"
fill="#000000" stroke="none">
<path d="M0 2325 c0 -921 4 -1675 8 -1675 4 0 8 -9 9 -20 1 -11 -2 -20 -8 -20
-5 0 -9 -122 -9 -305 l0 -305 2000 0 2000 0 0 1605 c0 966 -4 1605 -9 1605 -5
0 -12 -6 -15 -12 -3 -10 -9 -8 -19 5 -8 9 -19 17 -26 17 -14 0 -15 17 -1 25 5
3 10 15 10 25 0 14 7 18 28 17 l27 -2 3 358 2 357 -1935 0 c-1283 0 -1935 -3
-1935 -10 0 -5 -6 -10 -14 -10 -7 0 -19 -6 -25 -14 -10 -12 -16 -10 -36 10
-13 13 -31 24 -40 24 -13 0 -15 -171 -15 -1675z m993 1253 c3 -9 -1 -22 -9
-29 -19 -16 -44 5 -37 31 6 23 40 22 46 -2z m1701 -198 c225 -17 411 -63 571
-140 206 -99 321 -204 404 -367 198 -394 -93 -924 -709 -1295 -193 -116 -475
-239 -661 -289 -94 -24 -127 -38 -94 -39 25 0 211 56 342 104 49 18 280 126
348 163 59 32 261 166 310 206 119 97 218 194 291 282 43 52 80 93 82 91 7 -8
-19 -542 -29 -600 -25 -141 -105 -240 -331 -407 -340 -253 -643 -382 -1043
-445 -220 -35 -650 -13 -810 41 -61 21 -140 71 -181 116 -28 30 -341 430 -361
461 -4 7 -48 33 -98 58 -252 125 -403 292 -440 486 -34 180 -12 323 80 509 83
167 257 371 424 497 184 140 487 309 686 383 405 152 818 214 1219 185z m539
-3162 c-12 -13 -20 -15 -35 -7 -23 13 -20 42 7 50 30 8 48 -21 28 -43z"/>
<path d="M2265 3293 c-69 -6 -299 -42 -366 -57 -183 -42 -320 -88 -507 -172
-223 -100 -340 -169 -495 -291 -203 -161 -340 -334 -410 -518 -28 -73 -31 -91
-31 -202 -1 -92 2 -125 13 -135 12 -11 13 -9 7 12 -18 66 -18 167 -1 235 83
331 401 642 882 865 376 174 702 245 1118 244 294 -1 453 -30 633 -114 167
-79 275 -177 339 -309 31 -65 37 -86 41 -168 9 -183 -50 -337 -204 -523 -116
-141 -258 -257 -472 -387 -71 -43 -313 -163 -329 -163 -4 0 -42 -14 -83 -31
-68 -27 -102 -38 -265 -85 -85 -24 -194 -46 -330 -65 -129 -18 -130 -18 -39
-13 138 7 289 39 559 118 49 15 94 31 99 36 6 6 17 10 26 10 9 0 48 15 86 34
38 18 94 44 124 56 30 13 62 29 71 37 8 7 19 13 23 13 6 0 98 55 181 109 128
83 345 282 415 382 169 241 206 495 98 686 -36 64 -134 168 -201 212 -100 68
-297 140 -437 162 -36 5 -92 14 -125 19 -56 9 -331 11 -420 3z"/>
<path d="M2190 3134 c-469 -57 -895 -230 -1201 -490 -224 -190 -343 -427 -308
-617 37 -208 222 -357 528 -429 128 -29 423 -36 601 -13 443 56 903 258 1173
514 201 191 285 357 276 542 -12 227 -211 397 -554 474 -68 16 -433 29 -515
19z m339 -261 c17 -15 33 -77 92 -372 64 -322 70 -358 59 -395 -16 -54 -34
-79 -80 -111 -48 -33 -157 -65 -220 -65 -57 0 -123 30 -147 66 -22 34 -23 127
-4 442 7 118 10 217 6 220 -3 3 -72 -28 -153 -70 -155 -81 -224 -105 -269 -93
-15 3 -48 29 -74 57 -30 33 -52 49 -62 45 -8 -3 -64 -61 -124 -129 -220 -250
-262 -286 -356 -303 -44 -9 -87 14 -87 46 0 41 33 79 270 309 240 233 275 261
337 274 37 8 52 1 136 -60 86 -64 98 -62 319 47 100 51 194 95 208 99 47 15
126 11 149 -7z"/>
<path d="M664 1631 c7 -11 46 -35 46 -28 0 3 -12 12 -26 22 -15 9 -23 12 -20
6z"/>
<path d="M743 1578 c30 -22 168 -91 173 -86 1 2 -43 27 -99 55 -56 29 -89 43
-74 31z"/>
<path d="M945 1480 c11 -5 27 -9 35 -9 13 -1 13 0 0 9 -8 5 -24 9 -35 9 l-20
0 20 -9z"/>
<path d="M1015 1460 c11 -5 27 -9 35 -9 9 0 8 4 -5 9 -11 5 -27 9 -35 9 -9 0
-8 -4 5 -9z"/>
<path d="M1140 1431 c8 -5 40 -11 70 -14 38 -4 46 -3 25 3 -46 12 -112 20 -95
11z"/>
<path d="M1297 1409 c10 -4 92 -7 183 -7 91 0 156 2 145 4 -44 7 -345 9 -328
3z"/>
<path d="M845 1260 c27 -12 43 -12 25 0 -8 5 -22 9 -30 9 -10 0 -8 -3 5 -9z"/>
<path d="M900 1240 c8 -5 22 -9 30 -9 10 0 8 3 -5 9 -27 12 -43 12 -25 0z"/>
<path d="M2045 1224 c-60 -12 -157 -28 -215 -34 -58 -7 -107 -14 -110 -17 -20
-22 395 41 437 66 23 13 19 13 -112 -15z"/>
<path d="M998 1213 c7 -3 16 -2 19 1 4 3 -2 6 -13 5 -11 0 -14 -3 -6 -6z"/>
<path d="M1038 1203 c7 -3 16 -2 19 1 4 3 -2 6 -13 5 -11 0 -14 -3 -6 -6z"/>
<path d="M1100 1190 c14 -4 39 -8 55 -8 l30 0 -30 8 c-16 4 -41 8 -55 8 l-25
0 25 -8z"/>
<path d="M1245 1169 c48 -7 435 -10 405 -3 -8 1 -114 4 -235 6 -121 2 -197 1
-170 -3z"/>
<path d="M1688 1163 c7 -3 16 -2 19 1 4 3 -2 6 -13 5 -11 0 -14 -3 -6 -6z"/>
</g>
</svg>
